<mxfile host="app.diagrams.net" modified="2023-04-26T13:55:18.589Z" agent="Mozilla/5.0 (Windows NT 10.0; Win64; x64) AppleWebKit/537.36 (KHTML, like Gecko) Chrome/112.0.0.0 Safari/537.36" etag="Cu8yR-PHhTDR7oSvFTjJ" version="21.2.2" type="device">
  <diagram name="Page-1" id="ua31SkGLnWuT2MjU4fqf">
    <mxGraphModel dx="1050" dy="483" grid="1" gridSize="10" guides="1" tooltips="1" connect="1" arrows="1" fold="1" page="1" pageScale="1" pageWidth="827" pageHeight="1169" math="0" shadow="0">
      <root>
        <mxCell id="0" />
        <mxCell id="1" parent="0" />
        <mxCell id="-aA00grbJVmt3njNAz6V-8" style="edgeStyle=orthogonalEdgeStyle;rounded=0;orthogonalLoop=1;jettySize=auto;html=1;entryX=0.5;entryY=0;entryDx=0;entryDy=0;entryPerimeter=0;" parent="1" source="-aA00grbJVmt3njNAz6V-1" target="-aA00grbJVmt3njNAz6V-7" edge="1">
          <mxGeometry relative="1" as="geometry" />
        </mxCell>
        <mxCell id="-aA00grbJVmt3njNAz6V-1" value="Production Process" style="rounded=0;whiteSpace=wrap;html=1;" parent="1" vertex="1">
          <mxGeometry x="320" y="140" width="110" height="50" as="geometry" />
        </mxCell>
        <mxCell id="-aA00grbJVmt3njNAz6V-17" style="edgeStyle=orthogonalEdgeStyle;rounded=0;orthogonalLoop=1;jettySize=auto;html=1;entryX=0.5;entryY=0;entryDx=0;entryDy=0;" parent="1" source="-aA00grbJVmt3njNAz6V-2" target="-aA00grbJVmt3njNAz6V-16" edge="1">
          <mxGeometry relative="1" as="geometry" />
        </mxCell>
        <mxCell id="-aA00grbJVmt3njNAz6V-19" style="edgeStyle=orthogonalEdgeStyle;rounded=0;orthogonalLoop=1;jettySize=auto;html=1;entryX=0.5;entryY=0;entryDx=0;entryDy=0;" parent="1" source="-aA00grbJVmt3njNAz6V-2" target="-aA00grbJVmt3njNAz6V-18" edge="1">
          <mxGeometry relative="1" as="geometry" />
        </mxCell>
        <mxCell id="-aA00grbJVmt3njNAz6V-2" value="Manufacturer" style="rounded=0;whiteSpace=wrap;html=1;" parent="1" vertex="1">
          <mxGeometry x="330" y="360" width="90" height="40" as="geometry" />
        </mxCell>
        <mxCell id="-aA00grbJVmt3njNAz6V-3" value="" style="shape=image;html=1;verticalAlign=top;verticalLabelPosition=bottom;labelBackgroundColor=#ffffff;imageAspect=0;aspect=fixed;image=https://cdn1.iconfinder.com/data/icons/100-basic-for-user-interface/32/25-chain-128.png;rotation=-30;" parent="1" vertex="1">
          <mxGeometry x="210" y="30" width="70" height="70" as="geometry" />
        </mxCell>
        <mxCell id="-aA00grbJVmt3njNAz6V-9" style="edgeStyle=orthogonalEdgeStyle;rounded=0;orthogonalLoop=1;jettySize=auto;html=1;entryX=0.5;entryY=0;entryDx=0;entryDy=0;" parent="1" source="-aA00grbJVmt3njNAz6V-7" target="-aA00grbJVmt3njNAz6V-2" edge="1">
          <mxGeometry relative="1" as="geometry" />
        </mxCell>
        <mxCell id="-aA00grbJVmt3njNAz6V-7" value="" style="html=1;whiteSpace=wrap;shape=isoCube2;backgroundOutline=1;isoAngle=15;" parent="1" vertex="1">
          <mxGeometry x="348" y="240" width="54" height="60" as="geometry" />
        </mxCell>
        <mxCell id="XACj_426oNcb2FrmFmgL-10" style="edgeStyle=orthogonalEdgeStyle;rounded=0;orthogonalLoop=1;jettySize=auto;html=1;entryX=1;entryY=0.7;entryDx=0;entryDy=0;" edge="1" parent="1" source="-aA00grbJVmt3njNAz6V-16" target="XACj_426oNcb2FrmFmgL-2">
          <mxGeometry relative="1" as="geometry" />
        </mxCell>
        <mxCell id="-aA00grbJVmt3njNAz6V-16" value="Add Seller" style="rounded=0;whiteSpace=wrap;html=1;" parent="1" vertex="1">
          <mxGeometry x="260" y="480" width="96" height="50" as="geometry" />
        </mxCell>
        <mxCell id="XACj_426oNcb2FrmFmgL-11" style="edgeStyle=orthogonalEdgeStyle;rounded=0;orthogonalLoop=1;jettySize=auto;html=1;entryX=0;entryY=0.7;entryDx=0;entryDy=0;" edge="1" parent="1" source="-aA00grbJVmt3njNAz6V-18" target="XACj_426oNcb2FrmFmgL-3">
          <mxGeometry relative="1" as="geometry" />
        </mxCell>
        <mxCell id="-aA00grbJVmt3njNAz6V-18" value="Add Product" style="rounded=0;whiteSpace=wrap;html=1;" parent="1" vertex="1">
          <mxGeometry x="420" y="480" width="96" height="50" as="geometry" />
        </mxCell>
        <mxCell id="-aA00grbJVmt3njNAz6V-20" value="Serial No: AB12RT4321" style="text;html=1;align=center;verticalAlign=middle;resizable=0;points=[];autosize=1;strokeColor=none;fillColor=none;" parent="1" vertex="1">
          <mxGeometry x="366" y="290" width="150" height="30" as="geometry" />
        </mxCell>
        <mxCell id="XACj_426oNcb2FrmFmgL-2" value="" style="shape=datastore;whiteSpace=wrap;html=1;" vertex="1" parent="1">
          <mxGeometry x="80" y="445" width="60" height="60" as="geometry" />
        </mxCell>
        <mxCell id="XACj_426oNcb2FrmFmgL-12" style="edgeStyle=orthogonalEdgeStyle;rounded=0;orthogonalLoop=1;jettySize=auto;html=1;" edge="1" parent="1" source="XACj_426oNcb2FrmFmgL-3" target="XACj_426oNcb2FrmFmgL-1">
          <mxGeometry relative="1" as="geometry">
            <Array as="points">
              <mxPoint x="710" y="600" />
            </Array>
          </mxGeometry>
        </mxCell>
        <mxCell id="XACj_426oNcb2FrmFmgL-15" style="edgeStyle=orthogonalEdgeStyle;rounded=0;orthogonalLoop=1;jettySize=auto;html=1;entryX=0.5;entryY=1;entryDx=0;entryDy=0;entryPerimeter=0;" edge="1" parent="1" source="XACj_426oNcb2FrmFmgL-3" target="XACj_426oNcb2FrmFmgL-14">
          <mxGeometry relative="1" as="geometry" />
        </mxCell>
        <mxCell id="XACj_426oNcb2FrmFmgL-3" value="" style="shape=datastore;whiteSpace=wrap;html=1;" vertex="1" parent="1">
          <mxGeometry x="680" y="432.5" width="60" height="60" as="geometry" />
        </mxCell>
        <mxCell id="XACj_426oNcb2FrmFmgL-6" value="" style="shape=image;html=1;verticalAlign=top;verticalLabelPosition=bottom;labelBackgroundColor=#ffffff;imageAspect=0;aspect=fixed;image=https://cdn1.iconfinder.com/data/icons/100-basic-for-user-interface/32/25-chain-128.png;rotation=-30;" vertex="1" parent="1">
          <mxGeometry x="270" y="30" width="70" height="70" as="geometry" />
        </mxCell>
        <mxCell id="XACj_426oNcb2FrmFmgL-7" value="" style="shape=image;html=1;verticalAlign=top;verticalLabelPosition=bottom;labelBackgroundColor=#ffffff;imageAspect=0;aspect=fixed;image=https://cdn1.iconfinder.com/data/icons/100-basic-for-user-interface/32/25-chain-128.png;rotation=-30;" vertex="1" parent="1">
          <mxGeometry x="390" y="30" width="70" height="70" as="geometry" />
        </mxCell>
        <mxCell id="XACj_426oNcb2FrmFmgL-8" value="" style="shape=image;html=1;verticalAlign=top;verticalLabelPosition=bottom;labelBackgroundColor=#ffffff;imageAspect=0;aspect=fixed;image=https://cdn1.iconfinder.com/data/icons/100-basic-for-user-interface/32/25-chain-128.png;rotation=-30;imageBackground=none;imageBorder=none;" vertex="1" parent="1">
          <mxGeometry x="330" y="30" width="70" height="70" as="geometry" />
        </mxCell>
        <mxCell id="XACj_426oNcb2FrmFmgL-9" value="blockchain" style="sketch=0;outlineConnect=0;fontColor=#232F3E;gradientColor=none;strokeColor=#ffffff;fillColor=#232F3E;dashed=0;verticalLabelPosition=middle;verticalAlign=bottom;align=center;html=1;whiteSpace=wrap;fontSize=10;fontStyle=1;spacing=3;shape=mxgraph.aws4.productIcon;prIcon=mxgraph.aws4.elastic_block_store;" vertex="1" parent="1">
          <mxGeometry x="140" y="20" width="80" height="110" as="geometry" />
        </mxCell>
        <mxCell id="XACj_426oNcb2FrmFmgL-13" value="" style="group" vertex="1" connectable="0" parent="1">
          <mxGeometry x="440" y="580" width="95" height="65" as="geometry" />
        </mxCell>
        <mxCell id="-aA00grbJVmt3njNAz6V-13" value="" style="html=1;whiteSpace=wrap;shape=isoCube2;backgroundOutline=1;isoAngle=15;" parent="XACj_426oNcb2FrmFmgL-13" vertex="1">
          <mxGeometry x="16" width="54" height="60" as="geometry" />
        </mxCell>
        <mxCell id="-aA00grbJVmt3njNAz6V-15" value="" style="shape=image;html=1;verticalAlign=top;verticalLabelPosition=bottom;labelBackgroundColor=#ffffff;imageAspect=0;aspect=fixed;image=https://cdn1.iconfinder.com/data/icons/ionicons-sharp-vol-2/512/qr-code-sharp-128.png" parent="XACj_426oNcb2FrmFmgL-13" vertex="1">
          <mxGeometry y="35" width="30" height="30" as="geometry" />
        </mxCell>
        <mxCell id="XACj_426oNcb2FrmFmgL-1" value="" style="image;aspect=fixed;perimeter=ellipsePerimeter;html=1;align=center;shadow=0;dashed=0;fontColor=#4277BB;labelBackgroundColor=default;fontSize=12;spacingTop=3;image=img/lib/ibm/blockchain/blockchain.svg;" vertex="1" parent="XACj_426oNcb2FrmFmgL-13">
          <mxGeometry x="60" width="35" height="35" as="geometry" />
        </mxCell>
        <mxCell id="XACj_426oNcb2FrmFmgL-17" style="edgeStyle=orthogonalEdgeStyle;rounded=0;orthogonalLoop=1;jettySize=auto;html=1;entryX=0.5;entryY=1;entryDx=0;entryDy=0;" edge="1" parent="1" source="XACj_426oNcb2FrmFmgL-14" target="XACj_426oNcb2FrmFmgL-16">
          <mxGeometry relative="1" as="geometry" />
        </mxCell>
        <mxCell id="XACj_426oNcb2FrmFmgL-14" value="" style="sketch=0;aspect=fixed;pointerEvents=1;shadow=0;dashed=0;html=1;strokeColor=none;labelPosition=center;verticalLabelPosition=bottom;verticalAlign=top;align=center;fillColor=#00188D;shape=mxgraph.azure.computer" vertex="1" parent="1">
          <mxGeometry x="586.22" y="290" width="55.55" height="50" as="geometry" />
        </mxCell>
        <mxCell id="XACj_426oNcb2FrmFmgL-19" style="edgeStyle=orthogonalEdgeStyle;rounded=0;orthogonalLoop=1;jettySize=auto;html=1;entryX=0.5;entryY=1;entryDx=0;entryDy=0;" edge="1" parent="1" source="XACj_426oNcb2FrmFmgL-16" target="XACj_426oNcb2FrmFmgL-18">
          <mxGeometry relative="1" as="geometry" />
        </mxCell>
        <mxCell id="XACj_426oNcb2FrmFmgL-16" value="WEB3" style="rounded=0;whiteSpace=wrap;html=1;" vertex="1" parent="1">
          <mxGeometry x="564" y="200" width="100" height="35" as="geometry" />
        </mxCell>
        <mxCell id="XACj_426oNcb2FrmFmgL-20" style="edgeStyle=orthogonalEdgeStyle;rounded=0;orthogonalLoop=1;jettySize=auto;html=1;" edge="1" parent="1" source="XACj_426oNcb2FrmFmgL-18" target="XACj_426oNcb2FrmFmgL-7">
          <mxGeometry relative="1" as="geometry" />
        </mxCell>
        <mxCell id="XACj_426oNcb2FrmFmgL-18" value="" style="shape=image;html=1;verticalAlign=top;verticalLabelPosition=bottom;labelBackgroundColor=#ffffff;imageAspect=0;aspect=fixed;image=https://cdn0.iconfinder.com/data/icons/basic-e-commerce-line/48/Receipt_success-128.png" vertex="1" parent="1">
          <mxGeometry x="580" y="90" width="68" height="68" as="geometry" />
        </mxCell>
      </root>
    </mxGraphModel>
  </diagram>
</mxfile>
